<?xml version="1.0" encoding="iso-8859-1"?>
<!-- Generator: Adobe Illustrator 19.0.0, SVG Export Plug-In . SVG Version: 6.00 Build 0)  -->
<svg version="1.1" id="Layer_1" xmlns="http://www.w3.org/2000/svg" xmlns:xlink="http://www.w3.org/1999/xlink" x="0px" y="0px"
	 viewBox="0 0 400 400" style="enable-background:new 0 0 400 400;" xml:space="preserve">
<g>
	<g>
		<g>
			<path d="M360,48H40C18,48,0,66,0,88v224c0,22,18,40,40,40h320c22,0,40-18,40-40V88C400,66,382,48,360,48z M384,312
				c0,13.2-10.8,24-24,24H40c-13.2,0-24-10.8-24-24V144h368V312z M384,128H16V88c0-13.2,10.8-24,24-24h320c13.2,0,24,10.8,24,24V128
				z"/>
			<path d="M56,88h-8c-4.4,0-8,3.6-8,8c0,4.4,3.6,8,8,8h8c4.4,0,8-3.6,8-8C64,91.6,60.4,88,56,88z"/>
			<path d="M92,88h-8c-4.4,0-8,3.6-8,8c0,4.4,3.6,8,8,8h8c4.4,0,8-3.6,8-8C100,91.6,96.4,88,92,88z"/>
			<path d="M128,88h-8c-4.4,0-8,3.6-8,8c0,4.4,3.6,8,8,8h8c4.4,0,8-3.6,8-8C136,91.6,132.4,88,128,88z"/>
		</g>
	</g>
</g>
<g>
</g>
<g>
</g>
<g>
</g>
<g>
</g>
<g>
</g>
<g>
</g>
<g>
</g>
<g>
</g>
<g>
</g>
<g>
</g>
<g>
</g>
<g>
</g>
<g>
</g>
<g>
</g>
<g>
</g>
</svg>
